# xmcd
#
# Track frame offsets:
#	182
#	28982
#	50995
#	65082
#	87272
#	108140
#	125865
#	139492
#	159862
#	189040
#	204000
#	221535
#
# Disc length: 3239 seconds
# Revision: 5
# Processed by: cddbd v1.5.2PL0 Copyright (c) Steve Scherf et al.
# Submitted via: dBpowerAMP V12.0
#
DISCID=ae0ca50c
DTITLE=Luther Allison - Soul Fixin' Man
DYEAR=1994
DGENRE=Blues
TTITLE0=Bad Love
TTITLE1=I Want to Know
TTITLE2=Soul Fixin' Man
TTITLE3=Middle of The Road
TTITLE4=She Was Born That Way
TTITLE5=Gave it All
TTITLE6=You Been Teasin' me
TTITLE7=Nobody But You
TTITLE8=Put Your Money Where Your Mouth is
TTITLE9=The Things I Used to do
TTITLE10=Love String
TTITLE11=Freedom
EXTD=
EXTT0=
EXTT1=
EXTT2=
EXTT3=
EXTT4=
EXTT5=
EXTT6=
EXTT7=
EXTT8=
EXTT9=
EXTT10=
EXTT11=
PLAYORDER=
